:version 1.10
:name ASF
:units
  mass 1
  length 1
  angle deg
:documentation
  ASF file generated by Kaydara
:root
  axis xyz
  order  tx ty tz rx ry rz
  position 0 0 0
  orientation 0 0 0
:bonedata
  begin
    id 1
    name RightUpLegDummy
    direction -0.718183 -0.695806 0.00816078
    length 4.904
    axis 0 0 0 xyz
  end
  begin
    id 2
    name RightUpLeg
    direction -0.0736652 -0.994202 0.0783343
    length 17.4976
    axis -2.72909 -3.00389 -4.00133 xyz
    dof rx ry rz
  end
  begin
    id 3
    name RightLeg
    direction -0.0389037 -0.994596 -0.0962598
    length 16.5821
    axis 3.95836 -18.5909 -4.46993 xyz
    dof rx ry rz
  end
  begin
    id 4
    name RightFoot
    direction -0.311643 -0.412678 0.855906
    length 3.77069
    axis -1.99483 -18.8351 -3.27644 xyz
    dof rx ry rz
  end
  begin
    id 5
    name RightToes
    direction -0.317852 0.0389852 0.947339
    length 3.85082
    axis -2.00228 -18.1713 -3.25211 xyz
    dof rx ry rz
  end
  begin
    id 6
    name SpineDummy
    direction 8.3039e-015 1 4.44677e-016
    length 4.6813
    axis 0 0 0 xyz
  end
  begin
    id 7
    name Spine
    direction -0.000262373 0.999988 0.00493267
    length 10.1015
    axis -0.00246081 0.00062579 0.0150362 xyz
    dof rx ry rz
  end
  begin
    id 8
    name Spine1
    direction 0 0 0
    length 0
    axis -0.00349562 0.000650293 0.0196666 xyz
    dof rx ry rz
  end
  begin
    id 9
    name HEadDummy
    direction -0.000343232 0.999999 0.00123745
    length 3.43865
    axis -0.00349562 0.000650293 0.0196666 xyz
  end
  begin
    id 10
    name HEad
    direction -0.0461221 0.980933 0.188796
    length 5.12695
    axis -0.00351404 -7.04812 0.0199272 xyz
    dof rx ry rz
  end
  begin
    id 11
    name LeftShoulder1Dummy
    direction 0.998904 -0.0399089 -0.0244534
    length 3.5433
    axis -0.00349562 0.000650293 0.0196666 xyz
  end
  begin
    id 12
    name LeftShoulder1
    direction 0.99951 1.64443e-005 0.0312999
    length 4.05031
    axis -0.00349562 0.000650293 0.0196666 xyz
    dof rx ry rz
  end
  begin
    id 13
    name LeftArm
    direction 0.984791 0.0515299 0.165927
    length 12.9126
    axis -64.823 -10.7743 5.20463 xyz
    dof rx ry rz
  end
  begin
    id 14
    name LeftForeArm
    direction 0.984968 0.0534808 0.16425
    length 10.8596
    axis -30.0462 -7.70601 1.87451 xyz
    dof rx ry rz
  end
  begin
    id 15
    name LeftHand
    direction 0.975871 0.0289682 0.216418
    length 6.62295
    axis -20.1348 -6.98077 1.86072 xyz
    dof rx ry rz
  end
  begin
    id 16
    name RightShoulderDummy
    direction -0.998877 -0.0405946 -0.0244307
    length 3.5433
    axis -0.00349562 0.000650293 0.0196666 xyz
  end
  begin
    id 17
    name RightShoulder
    direction -0.998933 -0.0249743 -0.0388558
    length 4.05031
    axis -0.0205316 -4.02113 1.41395 xyz
    dof rx ry rz
  end
  begin
    id 18
    name RightArm
    direction -0.997559 0.068664 0.0127103
    length 12.9638
    axis -67.3882 1.84188 -6.15987 xyz
    dof rx ry rz
  end
  begin
    id 19
    name RightForeArm
    direction -0.991508 0.0912848 0.0926241
    length 10.8312
    axis -22.1975 3.41087 -4.28711 xyz
    dof rx ry rz
  end
  begin
    id 20
    name RightHand
    direction -0.989262 0.0600788 0.133232
    length 6.57864
    axis -12.2911 2.17515 -4.39675 xyz
    dof rx ry rz
  end
  begin
    id 21
    name LeftUpLegDummy
    direction 0.718183 -0.695806 0.00816078
    length 4.904
    axis 0 0 0 xyz
  end
  begin
    id 22
    name LeftUpLeg
    direction 0.0831398 -0.99469 0.0606531
    length 17.4976
    axis -1.71016 2.29552 4.63832 xyz
    dof rx ry rz
  end
  begin
    id 23
    name LeftLeg
    direction 0.0498442 -0.991778 -0.117862
    length 16.5821
    axis 5.13757 15.5727 5.13348 xyz
    dof rx ry rz
  end
  begin
    id 24
    name LeftFoot
    direction 0.269026 -0.433896 0.85986
    length 3.77069
    axis -0.576502 15.6961 4.10267 xyz
    dof rx ry rz
  end
  begin
    id 25
    name LeftToes
    direction 0.277311 0.0251143 0.960452
    length 3.85048
    axis -0.576502 15.6961 4.10267 xyz
    dof rx ry rz
  end
:hierarchy
  begin
    root RightUpLegDummy SpineDummy LeftUpLegDummy
    RightUpLegDummy RightUpLeg
    RightUpLeg RightLeg
    RightLeg RightFoot
    RightFoot RightToes
    SpineDummy Spine
    Spine Spine1
    Spine1 HEadDummy LeftShoulder1Dummy RightShoulderDummy
    HEadDummy HEad
    LeftShoulder1Dummy LeftShoulder1
    LeftShoulder1 LeftArm
    LeftArm LeftForeArm
    LeftForeArm LeftHand
    RightShoulderDummy RightShoulder
    RightShoulder RightArm
    RightArm RightForeArm
    RightForeArm RightHand
    LeftUpLegDummy LeftUpLeg
    LeftUpLeg LeftLeg
    LeftLeg LeftFoot
    LeftFoot LeftToes
  end

:SAMPLES-PER-SECOND 30
:FULLY-SPECIFIED
:DEGREES
114
root  -4.26426 19.1733 74.3124 -138.54 5.11255 -177.732
RightUpLeg  -49.6581 -7.64821 11.7543
RightLeg  122.3 20.9817 -8.01408
RightFoot  -41.4511 2.62991 9.86479
RightToes  -5.82073e-011 -3.18055e-015 -2.98177e-016
Spine  52.5749 0.562945 4.70558
Spine1  -19.2877 2.86774 1.13202
HEad  -18.8306 -7.3464 3.38741
LeftShoulder1  -3.88251e-019 9.70628e-020 -3.87848e-018
LeftArm  -12.2231 -18.3466 -71.948
LeftForeArm  28.3461 -1.70261 -6.96793
LeftHand  -12.3119 -11.1069 75.9342
RightShoulder  6.7296 10.9477 30.5887
RightArm  6.7187 15.9811 56.1867
RightForeArm  32.0163 1.88766 0.047618
RightHand  -13.0535 11.1281 -77.291
LeftUpLeg  -47.3416 -1.59807 3.27165
LeftLeg  119.734 -17.1404 6.44217
LeftFoot  -47.7954 -7.73343 -23.9961
LeftToes  -2.27483e-011 -5.53417e-011 9.36564e-012
115
root  -4.27178 19.1858 74.2791 -138.585 5.18843 -177.727
RightUpLeg  -49.6161 -7.66704 11.7859
RightLeg  122.161 21.1375 -8.27378
RightFoot  -41.3849 2.59081 9.73505
RightToes  -5.82073e-011 -3.18055e-015 -2.98177e-016
Spine  52.5738 0.557644 4.76645
Spine1  -19.2188 2.89478 1.02681
HEad  -18.4507 -7.4697 3.73159
LeftShoulder1  -3.88251e-019 9.70628e-020 -3.87848e-018
LeftArm  -12.2196 -18.2813 -71.883
LeftForeArm  28.4705 -1.73058 -7.10302
LeftHand  -12.4326 -11.2565 75.9629
RightShoulder  6.70791 10.9203 30.5325
RightArm  6.66319 15.5121 55.9134
RightForeArm  32.0462 2.65657 -0.242381
RightHand  -13.0092 11.1055 -77.1755
LeftUpLeg  -47.2187 -1.52559 3.19312
LeftLeg  119.657 -17.123 6.43168
LeftFoot  -47.6448 -7.62562 -23.7725
LeftToes  -2.27483e-011 -5.53417e-011 9.36564e-012
116
root  -4.27956 19.1907 74.2348 -138.516 5.3848 -177.659
RightUpLeg  -49.6283 -7.50003 11.7238
RightLeg  122.065 21.242 -8.45003
RightFoot  -41.2799 2.55993 9.65178
RightToes  -5.82073e-011 -3.18055e-015 -2.98177e-016
Spine  52.4416 0.633506 4.73468
Spine1  -19.0181 2.95697 0.765903
HEad  -17.9798 -7.56005 4.44573
LeftShoulder1  -3.88251e-019 9.70628e-020 -3.87848e-018
LeftArm  -12.1765 -18.3722 -71.85
LeftForeArm  28.6196 -1.7495 -7.18703
LeftHand  -12.6048 -11.4538 76.0577
RightShoulder  6.70713 10.9285 30.512
RightArm  6.48626 14.8789 55.5939
RightForeArm  32.0681 3.67826 -0.723766
RightHand  -12.9598 11.0921 -77.0066
LeftUpLeg  -47.1276 -1.31448 3.08625
LeftLeg  119.585 -17.0869 6.3901
LeftFoot  -47.4965 -7.51728 -23.5433
LeftToes  -2.27483e-011 -5.53417e-011 9.36564e-012
117
root  -4.28519 19.1891 74.193 -138.354 5.54716 -177.632
RightUpLeg  -49.7154 -7.34397 11.6396
RightLeg  121.978 21.2971 -8.55389
RightFoot  -41.1889 2.5628 9.69709
RightToes  -5.82073e-011 -3.18055e-015 -2.98177e-016
Spine  52.2547 0.74475 4.61911
Spine1  -18.8475 3.0069 0.646748
HEad  -17.5018 -7.60442 5.16801
LeftShoulder1  -3.88251e-019 9.70628e-020 -3.87848e-018
LeftArm  -12.004 -18.3153 -71.961
LeftForeArm  28.605 -1.73894 -7.1323
LeftHand  -12.7659 -11.6366 76.1507
RightShoulder  6.74953 10.961 30.6642
RightArm  6.46438 14.4719 55.2088
RightForeArm  32.0603 4.55037 -1.02514
RightHand  -12.9251 11.0812 -76.8926
LeftUpLeg  -47.154 -1.17324 2.9689
LeftLeg  119.493 -17.079 6.39768
LeftFoot  -47.3961 -7.42198 -23.3185
LeftToes  -2.27483e-011 -5.53417e-011 9.36564e-012
118
root  -4.2879 19.1914 74.1587 -138.188 5.60127 -177.672
RightUpLeg  -49.8194 -7.33172 11.5778
RightLeg  121.878 21.2982 -8.58407
RightFoot  -41.1785 2.56626 9.71482
RightToes  -5.82073e-011 -3.18055e-015 -2.98177e-016
Spine  52.0739 0.792918 4.53621
Spine1  -18.6627 3.00377 0.692459
HEad  -17.1352 -7.54601 5.51134
LeftShoulder1  -3.88251e-019 9.70628e-020 -3.87848e-018
LeftArm  -11.7248 -18.2012 -71.9949
LeftForeArm  28.3537 -1.73967 -7.16487
LeftHand  -12.848 -11.7152 76.2459
RightShoulder  6.76623 10.9724 30.7269
RightArm  6.62127 14.487 55.019
RightForeArm  31.9347 4.86965 -0.997102
RightHand  -12.9066 11.0611 -76.88
LeftUpLeg  -47.2489 -1.17899 2.85739
LeftLeg  119.353 -17.1236 6.50059
LeftFoot  -47.3021 -7.32738 -23.0896
LeftToes  -2.27483e-011 -5.53417e-011 9.36564e-012
119
root  -4.28941 19.1979 74.1216 -138.039 5.58554 -177.705
RightUpLeg  -49.8827 -7.39281 11.563
RightLeg  121.761 21.2747 -8.5839
RightFoot  -41.2084 2.56661 9.70498
RightToes  -5.82073e-011 -3.18055e-015 -2.98177e-016
Spine  51.9013 0.745138 4.58495
Spine1  -18.4294 2.9679 0.689651
HEad  -16.906 -7.41934 5.48399
LeftShoulder1  -3.88251e-019 9.70628e-020 -3.87848e-018
LeftArm  -11.347 -18.1765 -71.9523
LeftForeArm  27.9244 -1.75147 -7.27649
LeftHand  -12.8565 -11.6831 76.3908
RightShoulder  6.76517 10.9591 30.748
RightArm  6.85623 14.7988 55.0062
RightForeArm  31.7857 4.77588 -0.791402
RightHand  -12.8916 11.0347 -76.904
LeftUpLeg  -47.3422 -1.21805 2.7734
LeftLeg  119.164 -17.2175 6.69518
LeftFoot  -47.1369 -7.21607 -22.8567
LeftToes  -2.27483e-011 -5.53417e-011 9.36564e-012
120
root  -4.28865 19.2047 74.0757 -137.921 5.55798 -177.674
RightUpLeg  -49.8843 -7.41015 11.6114
RightLeg  121.606 21.2892 -8.65015
RightFoot  -41.144 2.5753 9.76396
RightToes  -5.82073e-011 -3.18055e-015 -2.98177e-016
Spine  51.7546 0.642786 4.70496
Spine1  -18.1586 2.91681 0.589728
HEad  -16.8173 -7.25123 5.36479
LeftShoulder1  -3.88251e-019 9.70628e-020 -3.87848e-018
LeftArm  -10.8824 -18.2672 -71.8763
LeftForeArm  27.434 -1.75665 -7.35901
LeftHand  -12.857 -11.6322 76.5641
RightShoulder  6.77484 10.9449 30.8259
RightArm  7.03946 15.0494 55.0704
RightForeArm  31.7457 4.73705 -0.672641
RightHand  -12.8865 11.0248 -76.9154
LeftUpLeg  -47.3671 -1.18583 2.73233
LeftLeg  118.963 -17.3309 6.92663
LeftFoot  -46.9291 -7.10204 -22.6424
LeftToes  -2.27483e-011 -5.53417e-011 9.36564e-012
121
root  -4.28701 19.2173 74.0255 -137.91 5.56989 -177.62
RightUpLeg  -49.803 -7.37226 11.6612
RightLeg  121.414 21.355 -8.80219
RightFoot  -40.9408 2.57812 9.85246
RightToes  -5.82073e-011 -3.18055e-015 -2.98177e-016
Spine  51.7391 0.578118 4.73891
Spine1  -17.9376 2.87077 0.572682
HEad  -16.8365 -7.04801 5.20785
LeftShoulder1  -3.88251e-019 9.70628e-020 -3.87848e-018
LeftArm  -10.5389 -18.3249 -71.7823
LeftForeArm  27.0898 -1.75163 -7.3703
LeftHand  -12.8781 -11.6186 76.7024
RightShoulder  6.75331 10.9272 30.7512
RightArm  7.07393 14.9905 55.2539
RightForeArm  31.7804 4.86397 -0.712923
RightHand  -12.9106 11.0405 -76.9675
LeftUpLeg  -47.2366 -1.10154 2.68584
LeftLeg  118.759 -17.4322 7.1416
LeftFoot  -46.7693 -7.00677 -22.4512
LeftToes  -2.27483e-011 -5.53417e-011 9.36564e-012
122
root  -4.28557 19.2353 73.9765 -137.983 5.66344 -177.605
RightUpLeg  -49.6824 -7.31587 11.6211
RightLeg  121.245 21.4218 -8.95014
RightFoot  -40.7212 2.56212 9.87233
RightToes  -5.82073e-011 -3.18055e-015 -2.98177e-016
Spine  51.8118 0.562294 4.67358
Spine1  -17.7577 2.83135 0.609567
HEad  -16.9292 -6.81627 4.94055
LeftShoulder1  -3.88251e-019 9.70628e-020 -3.87848e-018
LeftArm  -10.5082 -18.3728 -71.5375
LeftForeArm  27.018 -1.771 -7.48178
LeftHand  -12.8845 -11.6025 76.7848
RightShoulder  6.66835 10.8912 30.3874
RightArm  6.96479 14.7784 55.6388
RightForeArm  31.7649 4.84503 -0.78421
RightHand  -12.9541 11.0565 -77.1025
LeftUpLeg  -46.9966 -1.01316 2.56524
LeftLeg  118.543 -17.5173 7.33584
LeftFoot  -46.6557 -6.9203 -22.254
LeftToes  -2.27483e-011 -5.53417e-011 9.36564e-012
123
root  -4.28541 19.2416 73.9332 -137.936 5.82106 -177.619
RightUpLeg  -49.6935 -7.24867 11.5161
RightLeg  121.16 21.4612 -9.03369
RightFoot  -40.6147 2.54178 9.8309
RightToes  -5.82073e-011 -3.18055e-015 -2.98177e-016
Spine  51.7439 0.553192 4.64564
Spine1  -17.6105 2.80909 0.508109
HEad  -17.0267 -6.62406 4.66274
LeftShoulder1  -3.88251e-019 9.70628e-020 -3.87848e-018
LeftArm  -10.7 -18.408 -71.3024
LeftForeArm  27.1803 -1.79993 -7.61876
LeftHand  -12.8716 -11.5715 76.8334
RightShoulder  6.62146 10.8601 30.208
RightArm  6.92825 14.7817 55.9012
RightForeArm  31.723 4.60409 -0.717227
RightHand  -12.9857 11.051 -77.2587
LeftUpLeg  -46.8991 -0.922951 2.38523
LeftLeg  118.363 -17.5927 7.50731
LeftFoot  -46.5289 -6.8248 -22.0353
LeftToes  -2.27483e-011 -5.53417e-011 9.36564e-012
124
root  -4.28772 19.2338 73.8968 -137.772 5.97365 -177.637
RightUpLeg  -49.7989 -7.2049 11.4122
RightLeg  121.117 21.4831 -9.07869
RightFoot  -40.6109 2.53174 9.79143
RightToes  -5.82073e-011 -3.18055e-015 -2.98177e-016
Spine  51.5616 0.519132 4.71427
Spine1  -17.5374 2.80292 0.267491
HEad  -17.0797 -6.51594 4.54945
LeftShoulder1  -3.88251e-019 9.70628e-020 -3.87848e-018
LeftArm  -10.8781 -18.3751 -71.3099
LeftForeArm  27.4352 -1.7988 -7.58443
LeftHand  -12.8897 -11.5809 76.8805
RightShoulder  6.7031 10.8663 30.6157
RightArm  7.13771 15.0826 55.721
RightForeArm  31.7518 4.44144 -0.500459
RightHand  -12.9978 11.0359 -77.3624
LeftUpLeg  -46.9549 -0.85019 2.20912
LeftLeg  118.244 -17.6511 7.63587
LeftFoot  -46.3896 -6.72684 -21.8154
LeftToes  -2.27483e-011 -5.53417e-011 9.36564e-012
125
root  -4.29208 19.2236 73.8661 -137.575 6.09212 -177.651
RightUpLeg  -49.9388 -7.18996 11.3495
RightLeg  121.064 21.5046 -9.12652
RightFoot  -40.6276 2.53444 9.79602
RightToes  -5.82073e-011 -3.18055e-015 -2.98177e-016
Spine  51.3453 0.469158 4.78736
Spine1  -17.4643 2.77928 0.0507587
HEad  -17.1294 -6.4234 4.5916
LeftShoulder1  -3.88251e-019 9.70628e-020 -3.87848e-018
LeftArm  -10.8968 -18.3262 -71.4147
LeftForeArm  27.5565 -1.77671 -7.45267
LeftHand  -12.9271 -11.6072 76.9547
RightShoulder  6.81293 10.8896 31.1325
RightArm  7.39727 15.364 55.4498
RightForeArm  31.8246 4.47625 -0.322585
RightHand  -13.0054 11.0265 -77.4272
LeftUpLeg  -47.0627 -0.792705 2.0655
LeftLeg  118.167 -17.6787 7.70266
LeftFoot  -46.2994 -6.64587 -21.615
LeftToes  -2.27483e-011 -5.53417e-011 9.36564e-012
